<?xml version="1.0" encoding="UTF-8"?>
<svg version="1.1" xmlns="http://www.w3.org/2000/svg" width="39" height="39">
<path d="M0 0 C4.99824222 2.78311214 8.66790309 6.72537111 10.5625 12.1484375 C11.50562477 18.33286224 11.62497909 24.17424493 8.4375 29.7109375 C5.29464074 33.9430832 1.55814353 36.48322299 -3.4375 38.1484375 C-10.58911912 38.85320126 -16.51871869 38.47208626 -22.4375 34.1484375 C-28.0505505 28.23996329 -28.96125626 23.42435414 -28.80859375 15.4140625 C-28.15654478 9.6760316 -25.853774 6.47353135 -21.78125 2.5546875 C-15.55070163 -2.19742567 -7.2834414 -2.54453562 0 0 Z " fill="#FDFDFE" transform="translate(28.4375,0.8515625)"/>
<path d="M0 0 C4.75734783 2.42531458 7.71438001 5.15448563 10 10 C10.42697238 14.75647229 9.6647238 18.65587101 6.6875 22.4375 C3.11111066 25.84754565 1.52883849 26.83012906 -3.375 27.375 C-8.44549667 26.85046586 -11.15575392 24.71705669 -14.8125 21.3125 C-16.69033025 17.65567268 -17.22800583 14.09697971 -17 10 C-13.58334737 2.75669643 -8.07651287 -1.15378755 0 0 Z " fill="#2051E7" transform="translate(23,6)"/>
<path d="M0 0 C3 0.25 3 0.25 5 2.25 C5 3.57 5 4.89 5 6.25 C2 6.25 2 6.25 0.3125 4.75 C-0.120625 4.255 -0.55375 3.76 -1 3.25 C-1 4.9 -1 6.55 -1 8.25 C-0.01 8.25 0.98 8.25 2 8.25 C2 9.24 2 10.23 2 11.25 C1.01 11.25 0.02 11.25 -1 11.25 C-1 12.24 -1 13.23 -1 14.25 C0.65 14.25 2.3 14.25 4 14.25 C4 15.57 4 16.89 4 18.25 C0.37 18.25 -3.26 18.25 -7 18.25 C-7 16.93 -7 15.61 -7 14.25 C-6.34 14.25 -5.68 14.25 -5 14.25 C-5 13.26 -5 12.27 -5 11.25 C-5.99 11.25 -6.98 11.25 -8 11.25 C-8 10.26 -8 9.27 -8 8.25 C-7.01 8.25 -6.02 8.25 -5 8.25 C-5.061875 6.826875 -5.061875 6.826875 -5.125 5.375 C-4.95580103 1.14502578 -4.21852231 0.35154353 0 0 Z " fill="#E4EAFC" transform="translate(21,9.75)"/>
</svg>
